<svg xmlns="http://www.w3.org/2000/svg" viewBox="0 0 253.95 102.71"><g id="Layer_2" data-name="Layer 2"><g id="Layer_1-2" data-name="Layer 1"><path d="M81.82,45.5,78.24,34.62H61.6L57.89,45.5l5.31,1.35v3.07H47.58V46.85l5.25-1.35L68.06,3.2h6.59l15,42.3,5.12,1.35v3.07H76.57V46.85ZM70.05,9.79l-7,20.8H76.89L70.3,9.79Z"/><path d="M101.66,45.76V4.16L96.73,2.94V0h11.78V45.76L113.44,47v2.94H96.73V47Z"/><path d="M120.29,45.76V4.16l-4.93-1.22V0h11.77V45.76L132.06,47v2.94h-16.7V47Z"/><path d="M0,44.86H38.78V58.62H35.2L33.15,49H22.91V86.33l6.79,1.53v3.08H9.09V87.86l6.78-1.53V49H5.57l-2,9.6H0Z"/><path d="M69.31,73.47a24.87,24.87,0,0,1-1.21,7.8,16.52,16.52,0,0,1-3.46,6.15,11.62,11.62,0,0,1-4.86,3.17,20.26,20.26,0,0,1-6.6,1,19.71,19.71,0,0,1-6.49-1,11.92,11.92,0,0,1-4.83-3.11,16.21,16.21,0,0,1-3.36-5.89A23.66,23.66,0,0,1,37.31,74a25.48,25.48,0,0,1,1.22-7.91A16.52,16.52,0,0,1,42,59.9a12.68,12.68,0,0,1,4.9-3.17,19.4,19.4,0,0,1,6.5-1,20,20,0,0,1,6.52,1,12,12,0,0,1,4.87,3.1,15.47,15.47,0,0,1,3.39,6A25,25,0,0,1,69.31,73.47ZM45.5,77.18a16.74,16.74,0,0,0,1.16,5.12A9.44,9.44,0,0,0,49,85.69a8.69,8.69,0,0,0,2.91,1.41,7.6,7.6,0,0,0,3.36,0q3.65-1.09,5.12-5.7a23.78,23.78,0,0,0,1-5.38,30.69,30.69,0,0,0-.19-6A17.28,17.28,0,0,0,60,65a8.9,8.9,0,0,0-2.31-3.35,7,7,0,0,0-2.88-1.45,8.21,8.21,0,0,0-3.45,0c-2.43.72-4.1,2.62-5,5.69A27.54,27.54,0,0,0,45.5,77.18Z"/><path d="M101.76,91.51A9.57,9.57,0,0,1,97.6,99.7q-4.16,3-12.16,3a31.21,31.21,0,0,1-7.94-.89,11.36,11.36,0,0,1-5.12-2.69,6.65,6.65,0,0,1,0-9.12,8.48,8.48,0,0,1,5.08-2v-.25q-4.41-1.29-4.41-4.93a5.54,5.54,0,0,1,.64-2.59,7,7,0,0,1,2-2.31,10,10,0,0,1,3.49-1.63,9.45,9.45,0,0,1-5-3.52,10.07,10.07,0,0,1-1.79-6A9.93,9.93,0,0,1,76,58.68c2.34-2,5.57-2.94,9.66-2.94a20,20,0,0,1,5.79.73,11.46,11.46,0,0,1,4.13,2.21l2.18-.77,5.89-2.81h1.08v5.95h-1.08l-4.48-.51h-2a9.87,9.87,0,0,1,1.67,5.82,10.12,10.12,0,0,1-3.43,8.07Q92,77.37,85.82,77.37l-1.28,0c-.42,0-.85-.06-1.28-.1a9.69,9.69,0,0,0-3.84,1.28,2.75,2.75,0,0,0-1.34,2.37,1.84,1.84,0,0,0,1.18,1.89,13.7,13.7,0,0,0,4.45.48h7.43c3.49,0,6.14.67,7.93,2S101.76,88.7,101.76,91.51Zm-14.08-3H84.16c-2.86,0-4.93.47-6.21,1.43A4.48,4.48,0,0,0,76,93.69q0,5.5,9.73,5.5,5.25,0,8-1.6A5.05,5.05,0,0,0,96.51,93a3.57,3.57,0,0,0-2-3.48Q92.61,88.51,87.68,88.51Zm-9-22a8.5,8.5,0,0,0,1.7,5.73,6.36,6.36,0,0,0,5.08,2q3.66,0,5.35-2a8.5,8.5,0,0,0,1.69-5.73,8.13,8.13,0,0,0-1.69-5.6Q89.16,59,85.5,59a6.47,6.47,0,0,0-5.08,1.89A8.14,8.14,0,0,0,78.72,66.49Z"/><path d="M133.44,74.23H111.1a19.4,19.4,0,0,0,1.28,7.55,8.3,8.3,0,0,0,3.36,3.94A9.46,9.46,0,0,0,120.58,87a12.62,12.62,0,0,0,5.53-1.25,14.17,14.17,0,0,0,4.58-3.55l2.49,1.92a21.08,21.08,0,0,1-5.63,5.28,15.56,15.56,0,0,1-8.64,2.21A15.89,15.89,0,0,1,111,89.69a12.45,12.45,0,0,1-5.19-5.54,17.67,17.67,0,0,1-1.4-4.41,28.5,28.5,0,0,1-.45-5.19q0-9,4.13-13.89t11.36-4.92q6.72,0,10.43,4.06T133.63,71c0,.43,0,.85,0,1.25S133.52,73.34,133.44,74.23ZM119.23,59.51q-7.37,0-8.06,11.27h15.36v-2c0-3-.64-5.28-1.92-6.88A6.5,6.5,0,0,0,119.23,59.51Z"/><path d="M134.21,59.9V57.27l6.21-.89.83-8,6-.9v8.9h8.19V59.9h-8.19V82.1c0,1.46,0,2.45.07,3a4.76,4.76,0,0,0,.25,1.31,1.07,1.07,0,0,0,.71.61,6,6,0,0,0,1.66.16h4.48v2.18A53.4,53.4,0,0,1,148.61,91a20.11,20.11,0,0,1-4,.55,3.5,3.5,0,0,1-3.71-2.37,9.84,9.84,0,0,1-.39-2c-.08-.81-.12-2-.12-3.58V59.9Z"/><path d="M183.93,86.78V73.14q0-4.15-.22-6.2a9.77,9.77,0,0,0-.8-3.2q-1.53-3.14-5.63-3.14a8.47,8.47,0,0,0-3.46.74,8.11,8.11,0,0,0-2.81,2,6.73,6.73,0,0,0-1.73,2.72,12.93,12.93,0,0,0-.64,4V86.78L172.93,88v3H156.86V88l4.93-1.21V45.18L156.86,44V41h11.78V62.39a14,14,0,0,1,4.86-4.86A12.58,12.58,0,0,1,180,55.74a11.75,11.75,0,0,1,4.61.83A8,8,0,0,1,187.9,59a11.62,11.62,0,0,1,2.21,5.15,45.76,45.76,0,0,1,.67,8.8V86.78L195.71,88v3H179.65V88Z"/><path d="M225.34,74.23H203a19.22,19.22,0,0,0,1.28,7.55,8.3,8.3,0,0,0,3.36,3.94A9.42,9.42,0,0,0,212.48,87,12.58,12.58,0,0,0,218,85.72a14.06,14.06,0,0,0,4.58-3.55l2.5,1.92a21.27,21.27,0,0,1-5.64,5.28,15.56,15.56,0,0,1-8.64,2.21,15.91,15.91,0,0,1-7.87-1.89,12.37,12.37,0,0,1-5.18-5.54,17.27,17.27,0,0,1-1.41-4.41,28.5,28.5,0,0,1-.45-5.19q0-9,4.13-13.89t11.36-4.92q6.72,0,10.43,4.06T225.53,71c0,.43,0,.85,0,1.25S225.43,73.34,225.34,74.23ZM211.13,59.51q-7.35,0-8.06,11.27h15.36v-2c0-3-.64-5.28-1.92-6.88A6.5,6.5,0,0,0,211.13,59.51Z"/><path d="M246.4,60.41a1.33,1.33,0,0,0-.42-.19,1.85,1.85,0,0,0-.48-.07,2.63,2.63,0,0,0-1.6.77,9.75,9.75,0,0,0-1.69,1.92,13.43,13.43,0,0,0-1.38,2.5A25.43,25.43,0,0,0,239.42,70a27.18,27.18,0,0,0-.51,5.44V86.78L245.82,88v3H227.13V88l4.93-1.21V60.22L227.13,59V56.38H237l1.41,8.44h.25a16.3,16.3,0,0,1,4-6.72,7.87,7.87,0,0,1,5.5-2.36,5.88,5.88,0,0,1,4.17,1.56A5.54,5.54,0,0,1,254,61.5a4.84,4.84,0,0,1-1.06,3.2A3.5,3.5,0,0,1,250,66a3.78,3.78,0,0,1-3-1.12,4,4,0,0,1-1-2.72c0-.26,0-.49,0-.71A4.92,4.92,0,0,1,246.4,60.41Z"/></g></g></svg>